<svg width="97" height="98" xmlns="http://www.w3.org/2000/svg" xmlns:xlink="http://www.w3.org/1999/xlink" xml:space="preserve" overflow="hidden"><g transform="translate(-709 -122)"><g><g><g><g><path d="M737 155C737 156.105 736.105 157 735 157 733.895 157 733 156.105 733 155 733 153.895 733.895 153 735 153 736.105 153 737 153.895 737 155Z" fill="#000000" fill-rule="nonzero" fill-opacity="1"/><path d="M737 163C737 164.105 736.105 165 735 165 733.895 165 733 164.105 733 163 733 161.895 733.895 161 735 161 736.105 161 737 161.895 737 163Z" fill="#000000" fill-rule="nonzero" fill-opacity="1"/><path d="M733 159C733 160.105 732.105 161 731 161 729.895 161 729 160.105 729 159 729 157.895 729.895 157 731 157 732.105 157 733 157.895 733 159Z" fill="#000000" fill-rule="nonzero" fill-opacity="1"/><path d="M741 159C741 160.105 740.105 161 739 161 737.895 161 737 160.105 737 159 737 157.895 737.895 157 739 157 740.105 157 741 157.895 741 159Z" fill="#000000" fill-rule="nonzero" fill-opacity="1"/><path d="M765 151C765 152.105 764.105 153 763 153 761.895 153 761 152.105 761 151 761 149.895 761.895 149 763 149 764.105 149 765 149.895 765 151Z" fill="#000000" fill-rule="nonzero" fill-opacity="1"/><path d="M765 159C765 160.105 764.105 161 763 161 761.895 161 761 160.105 761 159 761 157.895 761.895 157 763 157 764.105 157 765 157.895 765 159Z" fill="#000000" fill-rule="nonzero" fill-opacity="1"/><path d="M761 155C761 156.105 760.105 157 759 157 757.895 157 757 156.105 757 155 757 153.895 757.895 153 759 153 760.105 153 761 153.895 761 155Z" fill="#000000" fill-rule="nonzero" fill-opacity="1"/><path d="M769 155C769 156.105 768.105 157 767 157 765.895 157 765 156.105 765 155 765 153.895 765.895 153 767 153 768.105 153 769 153.895 769 155Z" fill="#000000" fill-rule="nonzero" fill-opacity="1"/><path d="M792 168 786 174 778 174 778 196 786 196 792 202 798 202 798 168Z" fill="#000000" fill-rule="nonzero" fill-opacity="1"/><path d="M763 164C758 164 754 160 754 155 754 150 758 146 763 146 768 146 772 150 772 155 772 160 768 164 763 164ZM766 196C764.9 196 764 195.1 764 194 764 192.9 764.9 192 766 192 767.1 192 768 192.9 768 194 768 195.1 767.1 196 766 196ZM747 168C748.3 166.2 749.3 164.2 749.7 161.9 751 164.4 753.1 166.5 755.5 168L747 168ZM735 168C730 168 726 164 726 159 726 154 730 150 735 150 740 150 744 154 744 159 744 164 740 168 735 168ZM770.4 168C774.9 165.4 778 160.6 778 155 778 146.7 771.3 140 763 140 755.7 140 749.7 145.2 748.3 152.1 745.8 147.3 740.8 144 735 144 726.7 144 720 150.7 720 159 720 163.9 722.4 168.2 726 171L726 174 724 174 722 172 718 172 718 182 722 182 724 180 726 180 726 198C726 200.2 727.8 202 730 202L770 202C772.2 202 774 200.2 774 198L774 172C774 169.9 772.4 168.2 770.4 168Z" fill="#000000" fill-rule="nonzero" fill-opacity="1"/></g></g></g></g></g></svg>