<svg width="97" height="98" xmlns="http://www.w3.org/2000/svg" xmlns:xlink="http://www.w3.org/1999/xlink" xml:space="preserve" overflow="hidden"><g transform="translate(-337 -122)"><g><g><g><g><path d="M411.9 125 411.9 125C412.6 127.6 414.5 129.8 417 131 414.5 132.2 412.7 134.4 411.9 137 411.2 134.4 409.3 132.2 406.8 131 409.3 129.8 411.2 127.6 411.9 125Z" fill="#000000" fill-rule="nonzero" fill-opacity="1"/><path d="M347.9 147 347.9 147C348.6 149.6 350.5 151.8 353 153 350.5 154.2 348.7 156.4 347.9 159 347.2 156.4 345.3 154.2 342.8 153 345.3 151.8 347.2 149.6 347.9 147Z" fill="#000000" fill-rule="nonzero" fill-opacity="1"/><path d="M357.8 127 357.8 127C358.4 129.2 360 131 362 132 359.9 133 358.4 134.8 357.8 137 357.2 134.8 355.6 133 353.6 132 355.6 131 357.2 129.2 357.8 127Z" fill="#000000" fill-rule="nonzero" fill-opacity="1"/><path d="M423.8 143 423.8 143C424.4 145.2 426 147 428 148 425.9 149 424.4 150.8 423.8 153 423.2 150.8 421.6 149 419.6 148 421.6 147 423.2 145.2 423.8 143Z" fill="#000000" fill-rule="nonzero" fill-opacity="1"/><path d="M386 162.5C385.2 162.5 384.5 161.8 384.5 161L384.5 151C384.5 150.2 385.2 149.5 386 149.5 386.8 149.5 387.5 150.2 387.5 151L387.5 161C387.5 161.8 386.8 162.5 386 162.5Z" fill="#000000" fill-rule="nonzero" fill-opacity="1"/><path d="M386 146.5C385.2 146.5 384.5 145.8 384.5 145L384.5 137C384.5 136.2 385.2 135.5 386 135.5 386.8 135.5 387.5 136.2 387.5 137L387.5 145C387.5 145.8 386.8 146.5 386 146.5Z" fill="#000000" fill-rule="nonzero" fill-opacity="1"/><path d="M386 132.5C385.2 132.5 384.5 131.8 384.5 131L384.5 127C384.5 126.2 385.2 125.5 386 125.5 386.8 125.5 387.5 126.2 387.5 127L387.5 131C387.5 131.8 386.8 132.5 386 132.5Z" fill="#000000" fill-rule="nonzero" fill-opacity="1"/><path d="M397 155.5C396.9 155.5 396.8 155.5 396.7 155.5 395.9 155.3 395.4 154.5 395.6 153.7L397.3 145.9C397.5 145.1 398.3 144.6 399.1 144.8 399.9 145 400.4 145.8 400.2 146.6L398.5 154.4C398.3 155 397.7 155.5 397 155.5Z" fill="#000000" fill-rule="nonzero" fill-opacity="1"/><path d="M400 141.8C399.9 141.8 399.8 141.8 399.7 141.8 398.9 141.6 398.4 140.8 398.6 140L398.6 140 399.9 134.1C400.1 133.3 400.8 132.8 401.7 132.9 402.5 133.1 403 133.8 402.9 134.7 402.9 134.7 402.9 134.7 402.9 134.8L401.6 140.7C401.3 141.3 400.7 141.8 400 141.8Z" fill="#000000" fill-rule="nonzero" fill-opacity="1"/><path d="M407 153.5C406.2 153.5 405.5 152.8 405.5 152 405.5 151.7 405.6 151.4 405.8 151.1L412.6 141.2C413.1 140.5 414 140.4 414.7 140.9 415.3 141.4 415.5 142.2 415.1 142.9L408.3 152.8C408 153.3 407.5 153.5 407 153.5Z" fill="#000000" fill-rule="nonzero" fill-opacity="1"/><path d="M375 155.5C374.3 155.5 373.7 155 373.5 154.3L371.4 144.5C371.2 143.7 371.8 142.9 372.6 142.7 373.4 142.5 374.2 143 374.3 143.8L376.4 153.6C376.6 154.4 376.1 155.2 375.3 155.4 375.2 155.5 375.1 155.5 375 155.5Z" fill="#000000" fill-rule="nonzero" fill-opacity="1"/><path d="M371.6 139.9C370.9 139.9 370.3 139.4 370.1 138.7L369.3 134.8C369.1 134 369.6 133.2 370.4 133 371.2 132.8 372 133.3 372.2 134.1 372.2 134.1 372.2 134.1 372.2 134.2L373 138.1C373.2 138.9 372.7 139.7 371.9 139.9 371.8 139.9 371.7 139.9 371.6 139.9Z" fill="#000000" fill-rule="nonzero" fill-opacity="1"/><path d="M365 153.5C364.5 153.5 364 153.3 363.8 152.9L357 143C356.6 142.3 356.8 141.4 357.5 140.9 358.2 140.5 359 140.6 359.5 141.3L366.3 151.2C366.8 151.9 366.6 152.8 365.9 153.3 365.6 153.4 365.3 153.5 365 153.5Z" fill="#000000" fill-rule="nonzero" fill-opacity="1"/><path d="M429.8 204.9 426.8 172.5C426.7 171.5 425.8 170.7 424.8 170.7 424.4 170.7 423.8 170.7 423.3 170.7L422.8 164.9 421 164.8C419.5 164.7 418 164.8 416.6 164.9L416.1 159.5 414.6 159.2C404.1 157.9 393.6 161.4 386 168.8 378.4 161.4 367.9 157.9 357.4 159.2L355.9 159.5 355.4 164.9C353.9 164.8 352.5 164.7 351 164.8L349.3 164.9 348.8 170.7C348.2 170.7 347.7 170.7 347.3 170.7 346.3 170.7 345.4 171.5 345.3 172.5L342.3 204.9C342.1 206 342.9 207 344 207.1 344.1 207.1 344.2 207.1 344.3 207.1 350.4 206.9 367.5 207.3 381.4 216.4 382.1 216.8 382.8 217.1 383.6 217.1L388.6 217.1C389.4 217.1 390.1 216.9 390.7 216.5 405.3 207.4 421.9 207 427.8 207.2 428.9 207.2 429.8 206.4 429.9 205.3 429.8 205 429.8 205 429.8 204.9ZM388 172.4C394.4 165.8 403.3 162.4 412.4 162.9L415.1 193.9C410.4 194.8 398.2 197.8 388 206.6L388 172.4ZM359.6 163C368.7 162.5 377.6 165.9 384 172.5L384 206.7C373.8 197.9 361.6 194.9 356.9 194L359.6 163ZM350 200 353 168.7C353.6 168.7 354.3 168.8 355.1 168.8L352.6 197.4 354.5 197.6C354.7 197.6 371.6 199.8 383.4 211.5 370.3 201.5 355.7 200.2 350 200ZM388.6 211.7C400.6 199.9 417.4 197.6 417.5 197.6L419.4 197.4 416.9 168.8C417.7 168.7 418.4 168.7 419 168.7L422 200C416.3 200.2 401.7 201.6 388.6 211.7Z" fill="#000000" fill-rule="nonzero" fill-opacity="1"/></g></g></g></g></g></svg>