<svg width="98" height="96" xmlns="http://www.w3.org/2000/svg" xmlns:xlink="http://www.w3.org/1999/xlink" xml:space="preserve" overflow="hidden"><g transform="translate(-410 -288)"><g><g><g><g><path d="M445.3 343 449.91 335C448.711 334.407 447.575 333.693 446.52 332.87L441.52 341.54C442.837 341.865 444.107 342.355 445.3 343Z" fill="#000000" fill-rule="nonzero" fill-opacity="1"/><path d="M464.21 360C464.074 359.173 464.004 358.338 464 357.5 464.001 356.999 464.028 356.498 464.08 356L453.92 356C453.972 356.498 453.999 356.999 454 357.5 453.996 358.338 453.926 359.173 453.79 360Z" fill="#000000" fill-rule="nonzero" fill-opacity="1"/><path d="M472 343.41C473.147 342.705 474.376 342.144 475.66 341.74L470.53 332.85C469.46 333.683 468.307 334.403 467.09 335Z" fill="#000000" fill-rule="nonzero" fill-opacity="1"/><path d="M437.5 345C430.596 345 425 350.596 425 357.5 425 364.404 430.596 370 437.5 370 444.404 370 450 364.404 450 357.5 450 350.596 444.404 345 437.5 345ZM437.5 349.87C439.439 349.865 441.014 351.431 441.02 353.37 441.026 355.309 439.458 356.884 437.52 356.89 435.582 356.896 434.005 355.328 434 353.39 434 353.383 434 353.377 434 353.37 434.005 351.439 435.569 349.875 437.5 349.87ZM444.5 363.93 430.5 363.93 430.5 361.26C430.513 360.712 430.77 360.199 431.2 359.86 432.238 359.115 433.394 358.55 434.62 358.19 435.56 357.917 436.531 357.769 437.51 357.75 438.49 357.756 439.463 357.904 440.4 358.19 441.64 358.512 442.803 359.08 443.82 359.86 444.25 360.199 444.507 360.712 444.52 361.26Z" fill="#000000" fill-rule="nonzero" fill-opacity="1"/><path d="M474 317.5C474 308.94 467.06 302 458.5 302 449.94 302 443 308.94 443 317.5 443 326.06 449.94 333 458.5 333 467.06 333 474 326.06 474 317.5ZM458.47 308C460.872 308 462.82 309.948 462.82 312.35 462.82 314.752 460.872 316.7 458.47 316.7 456.068 316.7 454.12 314.752 454.12 312.35 454.125 309.95 456.07 308.005 458.47 308ZM467.15 325.44 449.78 325.44 449.78 322.1C449.793 321.418 450.112 320.779 450.65 320.36 451.931 319.436 453.362 318.739 454.88 318.3 456.047 317.959 457.255 317.778 458.47 317.76 459.684 317.762 460.89 317.944 462.05 318.3 463.586 318.7 465.027 319.4 466.29 320.36 466.822 320.783 467.137 321.421 467.15 322.1Z" fill="#000000" fill-rule="nonzero" fill-opacity="1"/><path d="M480.5 345C473.596 345 468 350.596 468 357.5 468 364.404 473.596 370 480.5 370 487.404 370 493 364.404 493 357.5 493 350.596 487.404 345 480.5 345ZM480.5 349.87C482.439 349.865 484.014 351.431 484.02 353.37 484.026 355.309 482.458 356.884 480.52 356.89 478.581 356.896 477.005 355.328 477 353.39 477 353.383 477 353.377 477 353.37 477.005 351.439 478.569 349.875 480.5 349.87ZM487.5 363.93 473.5 363.93 473.5 361.26C473.513 360.712 473.77 360.199 474.2 359.86 475.238 359.115 476.394 358.55 477.62 358.19 478.56 357.917 479.531 357.769 480.51 357.75 481.49 357.756 482.463 357.904 483.4 358.19 484.64 358.512 485.803 359.08 486.82 359.86 487.25 360.199 487.507 360.712 487.52 361.26Z" fill="#000000" fill-rule="nonzero" fill-opacity="1"/></g></g></g></g></g></svg>